PathFileType	4	(X/Y/Z)	c:/Users/goper/Files/vsCode/490R/osim_files/A02/A02_Slow_05.trc
DataRate	CameraRate	NumFrames	NumMarkers	Units                	OrigDataRate	OrigDataStartFrame	OrigNumFrames
250.00	250.00	11	36	mm	250.0	1218	2435
                Frame#	Time	Mobility_markerset:LPSIS			Mobility_markerset:LASIS			Mobility_markerset:LTH1			Mobility_markerset:LTH2			Mobility_markerset:LTH3			Mobility_markerset:LTH4			Mobility_markerset:LLFE			Mobility_markerset:LMFE			Mobility_markerset:LSH1			Mobility_markerset:LSH2			Mobility_markerset:LSH3			Mobility_markerset:LSH4			Mobility_markerset:LLMAL			Mobility_markerset:LMMAL			Mobility_markerset:LCAL			Mobility_markerset:LMTP5			Mobility_markerset:LTOE			Mobility_markerset:LMTP1			Mobility_markerset:RPSIS			Mobility_markerset:RASIS			Mobility_markerset:RTH1			Mobility_markerset:RTH2			Mobility_markerset:RTH3			Mobility_markerset:RTH4			Mobility_markerset:RLFE			Mobility_markerset:RMFE			Mobility_markerset:RSH1			Mobility_markerset:RSH2			Mobility_markerset:RSH3			Mobility_markerset:RSH4			Mobility_markerset:RLMAL			Mobility_markerset:RMMAL			Mobility_markerset:RCAL			Mobility_markerset:RMTP1			Mobility_markerset:RTOE			Mobility_markerset:RMTP5		
		X1	Y1	Z1	X2	Y2	Z2	X3	Y3	Z3	X4	Y4	Z4	X5	Y5	Z5	X6	Y6	Z6	X7	Y7	Z7	X8	Y8	Z8	X9	Y9	Z9	X10	Y10	Z10	X11	Y11	Z11	X12	Y12	Z12	X13	Y13	Z13	X14	Y14	Z14	X15	Y15	Z15	X16	Y16	Z16	X17	Y17	Z17	X18	Y18	Z18	X19	Y19	Z19	X20	Y20	Z20	X21	Y21	Z21	X22	Y22	Z22	X23	Y23	Z23	X24	Y24	Z24	X25	Y25	Z25	X26	Y26	Z26	X27	Y27	Z27	X28	Y28	Z28	X29	Y29	Z29	X30	Y30	Z30	X31	Y31	Z31	X32	Y32	Z32	X33	Y33	Z33	X34	Y34	Z34	X35	Y35	Z35	X36	Y36	Z36

1218	4.86800	153.34491	966.92493	274.61542	12.34341	936.09259	359.96170	76.80357	672.52417	367.63058	59.51979	628.72119	362.50546	21.98026	685.73785	392.53787	13.68073	642.07526	382.71036	-20.84807	472.17206	337.59735	0.00000	0.00000	0.00000	49.85203	397.83472	325.90250	55.19241	353.57950	330.70020	-9.25535	387.39130	337.63455	3.03275	344.38663	340.12646	49.25351	105.25377	290.05020	32.78936	109.47964	208.27144	116.70863	91.63026	241.02042	-35.17054	42.82846	314.45416	-91.23544	56.53146	251.41237	-55.04760	32.78679	202.94714	144.50230	986.63947	174.84007	-17.22273	972.82208	121.07006	15.41415	655.36816	72.40726	12.44798	611.37976	72.30195	-46.66101	652.21075	82.16777	-39.51029	610.16418	77.70010	4.16534	498.62225	61.48006	1.44732	496.06696	196.07550	92.29559	334.90671	74.78951	107.74816	291.21863	84.30679	37.66954	311.12268	78.38119	60.62556	269.78290	83.50607	174.56235	142.88321	78.41779	171.76440	143.22128	162.71519	234.62236	144.89317	115.81143	69.95314	62.12651	168.68542	41.88766	65.72688	136.35840	68.85229	63.35711	76.81071
1219	4.87200	149.39011	967.99231	274.79059	8.54064	936.92914	360.30994	74.35322	673.63403	367.58420	57.34215	629.76056	362.49905	19.49890	686.53119	392.64813	11.50200	642.80109	382.90112	-22.82721	471.84109	335.57898	0.00000	0.00000	0.00000	48.96964	398.90814	326.03067	54.49799	354.43671	330.67532	-10.07598	388.04492	337.77478	2.19782	345.02170	340.24124	48.83847	105.80020	290.10486	32.17736	110.02411	208.39845	116.23531	92.61847	241.09006	-35.24821	42.81054	314.46964	-91.51732	56.44821	251.53029	-55.13762	32.83867	203.03854	140.49211	987.71838	175.10585	-21.32982	973.80267	121.57162	10.68982	656.17517	72.69518	7.41025	612.16443	72.58632	-51.38393	653.39606	82.34972	-44.43498	611.27289	77.88247	-1.52591	499.45316	61.74924	-4.02043	497.09277	196.07751	83.36861	334.02863	75.18124	97.77223	289.99921	84.72818	28.26341	311.33081	78.74607	50.31937	269.55634	83.86625	161.72490	140.35698	78.91969	158.89816	140.87250	163.06625	221.81401	141.15971	116.41722	55.43761	61.83373	169.20100	28.12161	65.83443	136.91145	54.50060	63.00368	77.25098
1220	4.87600	145.49757	968.99292	274.94879	4.72546	937.76862	360.75909	71.91119	674.76117	367.53595	55.20190	630.77808	362.50803	16.90289	687.17255	392.77505	9.36888	643.57104	383.02765	-23.07258	473.58902	338.23230	0.00000	0.00000	0.00000	48.21696	399.88773	325.96588	53.65133	355.17517	330.67490	-11.03274	388.64938	337.88281	1.33798	345.59338	340.32843	48.33215	106.38199	290.18402	31.68615	110.87160	208.38847	115.81441	93.68587	241.11082	-35.40272	42.80223	314.49576	-91.73531	56.28577	251.72018	-55.22024	32.98095	203.00116	136.50607	988.73340	175.32033	-25.17592	974.79144	121.89257	5.96969	656.91577	73.00908	2.48984	612.91840	72.89481	-56.20990	654.33441	82.58810	-49.51979	612.22369	78.18931	-7.20426	500.25327	62.03643	-9.79121	497.78467	196.43857	74.37872	333.11447	75.56595	87.93569	288.84680	85.16447	18.73126	311.56683	79.09067	39.91788	269.24335	84.32400	148.77219	137.85675	79.48838	145.93240	138.54068	163.73489	208.82800	137.52428	117.00356	40.77502	61.53291	169.59212	13.61501	65.98743	137.20641	39.72978	62.80645	77.59883
1221	4.88000	141.62024	969.99896	275.10413	0.88515	938.57800	361.20328	69.43948	675.76685	367.57053	52.73978	631.56903	362.53244	14.50618	687.92706	392.99344	6.99890	644.18384	383.21155	0.00000	0.00000	0.00000	0.00000	0.00000	0.00000	46.95844	400.33679	325.69107	52.66691	355.96243	330.60516	-11.95157	389.31354	338.04434	0.46886	346.19083	340.47372	47.67447	106.92911	290.27512	31.38890	111.46082	208.60519	115.25069	94.63092	241.14862	-35.50692	42.78582	314.54803	-92.04835	56.13721	251.82977	-55.33979	33.02650	203.11777	132.54535	989.75903	175.54970	-28.86177	975.69891	122.13673	1.22226	657.51495	73.30118	-2.50027	613.55060	73.18086	-60.97657	655.28766	82.82098	-54.45966	613.12909	78.35177	-12.85924	500.91907	62.34225	-15.84726	498.49191	196.76041	65.18991	332.17474	76.02779	77.89354	287.60361	85.63287	9.22486	311.71289	79.42773	29.63836	269.11322	84.59229	136.25623	135.56276	79.94516	132.68097	136.90331	164.46016	195.65521	133.92801	117.65302	26.14480	61.39697	170.03651	-0.89244	66.31649	137.49580	25.11233	62.54895	77.92164
1222	4.88400	137.71596	970.94189	275.21265	0.00000	0.00000	0.00000	66.91547	676.79645	367.61130	50.66841	632.58844	362.64474	12.01800	688.62646	393.13776	4.67879	644.88965	383.40872	-27.44394	473.32123	336.55743	0.00000	0.00000	0.00000	45.92048	401.11261	325.88602	51.75604	356.71924	330.58163	-13.14679	389.75662	338.17181	-0.40818	346.78879	340.64484	47.24052	107.52188	290.34982	30.86261	111.82962	208.95392	114.73647	95.67836	241.20038	-35.68946	42.78955	314.58099	-91.67068	55.59498	251.53461	-55.37506	33.07835	203.22267	128.57619	990.76221	175.75792	-32.64693	976.55457	122.43764	-3.40345	658.05798	73.63708	-7.38495	614.10510	73.50812	-65.78146	656.07556	83.12642	-59.36961	613.99884	78.59062	-18.53698	501.51279	62.61186	-21.98228	499.10831	197.07286	56.16276	331.19714	76.44405	67.81746	286.36850	86.07558	-0.22792	311.91006	79.88709	19.08767	268.77374	85.15160	123.02030	133.16881	80.48509	119.31670	134.56026	164.97263	182.15097	130.36531	118.33936	11.79444	61.66852	169.88365	-15.42642	66.66499	137.74675	10.93270	62.26868	78.31689
1223	4.88800	133.84840	971.90070	275.36743	-6.43770	940.05109	361.89948	64.31379	677.80322	367.66415	48.13155	633.35461	362.73621	9.25224	689.23358	393.29846	2.33954	645.49158	383.57928	-28.13755	474.14862	336.22272	0.00000	0.00000	0.00000	44.76113	401.81073	325.87823	50.68046	357.44516	330.61060	-14.20320	390.31644	338.31897	-1.29331	347.40585	340.77902	46.64909	108.13489	290.45728	30.59282	112.56516	209.26283	114.20393	96.69920	241.30801	-35.98201	42.73661	314.53894	-91.92397	55.41610	251.62146	-55.47196	33.08570	203.21120	124.69948	991.71844	175.93884	-36.54673	977.29797	122.74969	-8.14509	658.53333	73.98811	-12.38656	614.55627	73.83304	-70.43101	656.90491	83.31248	-64.41355	614.72778	78.81158	-24.22165	502.03491	62.95367	-27.81239	499.71378	197.39502	46.97044	330.22528	76.87949	57.74901	285.12854	86.54107	-9.70389	312.14822	80.54323	8.97825	268.71463	85.64655	109.89977	131.30026	80.86189	105.92192	131.82536	166.64638	168.86304	126.93293	119.00804	0.00000	0.00000	0.00000	-30.08204	67.17088	138.04521	-4.33227	62.61917	78.37154
1224	4.89200	129.98753	972.79480	275.45624	-10.13598	940.78918	362.25034	61.82967	678.74042	367.74652	45.85603	634.23260	362.86099	6.70929	689.85541	393.53534	-0.06460	646.02771	383.78903	-28.88542	475.42120	338.56906	0.00000	0.00000	0.00000	43.75716	402.80560	325.73871	49.77519	358.19608	330.57990	-15.73443	390.54282	338.32199	-2.25813	347.96445	340.93304	46.13667	108.76080	290.56857	29.58694	113.24151	208.94809	113.68335	97.71555	241.36597	-36.16444	42.70720	314.60144	-92.19205	55.21841	251.71638	-55.67831	33.29232	203.21178	120.75609	992.63202	176.09685	-40.34216	977.96130	123.03553	-12.76169	658.89868	74.38971	-17.22850	614.98132	74.21088	-75.35968	657.53467	83.61541	-69.29154	615.43427	79.00298	-29.94073	502.45837	63.26225	-34.00143	500.20782	197.70827	37.77183	329.27615	77.30704	47.67909	283.97397	87.03771	-19.21706	312.12714	80.57046	-1.31367	268.47452	86.68971	96.86487	129.15240	81.67415	92.27437	130.18210	166.22023	155.45036	123.47058	119.72392	-18.41523	61.51974	170.92111	-44.75654	67.87718	138.24033	-18.46541	62.41978	78.88873
1225	4.89600	126.17076	973.65765	275.53708	-13.76174	941.36377	362.54108	59.27476	679.67395	367.85153	43.59410	635.13306	362.95673	4.13083	690.52301	393.70248	-2.33970	646.72931	384.07681	0.00000	0.00000	0.00000	0.00000	0.00000	0.00000	42.61181	403.48810	325.66348	48.61368	358.96152	330.62790	-16.47401	391.28699	338.58057	-3.29740	348.47528	341.06555	45.62456	109.35761	290.60541	28.94808	113.85064	209.11673	113.17549	98.69288	241.41966	-36.33302	42.72991	314.63254	-92.46585	55.02353	251.82962	0.00000	0.00000	0.00000	116.56684	993.53857	176.27744	-44.36005	978.61060	123.33784	-17.42114	659.15222	74.74091	-22.24050	615.27393	74.56587	-79.95251	658.26141	83.74398	-74.16978	616.14014	79.23313	-35.65893	502.81573	63.57661	-40.14828	500.57755	198.02176	28.49284	328.25198	77.78139	37.20212	282.66299	87.69375	-29.35893	312.25674	80.82607	-12.09692	268.28467	86.11986	82.85579	126.68675	81.88583	78.82925	128.05759	166.78665	141.94656	120.13567	120.49006	-32.75087	61.11723	171.06226	-59.51739	68.68205	138.51831	-33.16669	62.67351	79.09181
1226	4.90000	122.35530	974.61023	275.66733	-17.43202	942.04510	362.80017	56.60089	680.53833	367.96881	41.02573	635.84698	363.11432	1.42341	691.10553	393.87491	-4.86453	647.24408	384.27289	0.00000	0.00000	0.00000	0.00000	0.00000	0.00000	41.27428	404.17938	325.70972	47.48233	359.65289	330.59158	-17.75487	391.76862	338.83640	-4.40893	348.97351	341.26050	45.07597	109.96838	290.70270	28.39441	114.42415	209.21136	112.59134	99.57554	241.59642	-36.39623	42.74093	314.74216	-92.69335	54.78930	251.93504	0.00000	0.00000	0.00000	112.56393	994.39984	176.44543	-48.42056	979.20215	123.65931	-22.15317	659.36047	75.13502	-27.14079	615.51752	74.93900	-84.60707	658.80304	84.00155	-79.18631	616.59308	79.51827	-41.37830	503.11755	63.92458	-46.36396	500.76779	198.36395	19.23103	327.31915	78.23612	27.21038	281.57938	87.99718	-38.85085	312.39722	81.11996	-22.71420	268.12064	86.52892	69.56115	124.59936	82.55473	65.16042	125.96153	167.37297	128.45908	116.89719	121.21596	-47.61781	61.44327	171.27362	-74.13111	69.45795	138.61595	-47.79440	62.96560	79.33566
1227	4.90400	118.55447	975.42944	275.71149	-21.21822	942.65308	363.05545	53.99222	681.38025	368.11566	38.65968	636.61896	363.28113	-1.20769	691.64917	394.10440	-7.39622	647.74066	384.43695	-33.28722	476.87698	339.49982	0.00000	0.00000	0.00000	39.52965	404.56464	325.97421	46.25063	360.28879	330.68210	-19.13825	392.15945	339.03415	-5.49541	349.49268	341.45370	44.51107	110.51346	290.84360	27.81188	115.00463	209.32811	111.83076	100.50461	241.66937	-36.54737	42.75896	314.82129	-92.92189	54.53253	252.02568	0.00000	0.00000	0.00000	108.89833	995.14166	176.59341	-52.38915	979.61230	123.96881	-26.78876	659.46240	75.69094	-32.06612	615.66199	75.38531	-89.33492	659.32281	84.26260	-84.17301	617.01782	79.78383	-47.10068	503.36703	64.31707	-52.31854	501.28357	198.66119	9.89883	326.35068	78.71339	16.67651	280.33038	88.64460	-48.50497	312.69400	81.47324	-33.38465	267.89233	87.01080	55.84340	122.56436	83.13086	51.46291	124.07239	168.18611	114.64252	113.72836	121.94630	-62.57614	62.20445	171.24352	-88.61111	70.42694	138.36427	-62.47154	63.38451	79.58445
1228	4.90800	114.77111	976.26093	275.82031	-24.71265	943.16229	363.27487	51.30387	682.12360	368.30530	36.22889	637.38098	363.44928	-3.84966	692.18542	394.33469	-9.81798	648.29120	384.67657	-35.96142	476.14517	337.23798	0.00000	0.00000	0.00000	38.38480	405.43674	325.88562	45.00748	361.01251	330.78735	-20.44073	392.51291	339.20184	-6.67298	349.95267	341.63422	43.94236	111.07898	290.89172	27.19463	115.60629	209.49945	111.43854	101.62420	241.74173	-36.72731	42.76336	314.86365	-93.19981	54.30939	252.10034	0.00000	0.00000	0.00000	104.75412	996.01794	176.70810	-56.22620	980.06714	124.13621	-31.43918	659.54181	76.07774	-37.06813	615.76666	75.86620	-93.96982	659.83496	84.44568	-89.16198	617.45190	80.08453	-52.86336	503.55087	64.69908	-58.54159	501.51614	199.00308	0.57036	325.38971	79.23341	6.65094	279.30884	89.01770	-58.07425	312.96231	81.76116	-43.83039	267.93112	87.22830	42.31659	120.67168	83.81190	36.24622	120.85017	167.63371	100.85389	110.69086	122.73788	0.00000	0.00000	0.00000	-103.65997	71.54726	138.93301	-77.15132	63.88540	79.72990
